<svg width="248" height="178" fill="none" xmlns="http://www.w3.org/2000/svg"><g filter="url(#a)"><path d="M241 4.113 238.113 7 241 9.887 243.887 7 241 4.113ZM7 173.396l2.887-2.887L7 167.622l-2.887 2.887L7 173.396Zm233-99.964v.5-.5Zm-232 .5h232v-1H8v1Zm233.5-1.5V7h-1v65.431h1Zm-235 2v96.077h1V74.432h-1Zm233.5-.5a1.5 1.5 0 0 0 1.5-1.5h-1a.5.5 0 0 1-.5.5v1Zm-232-1a1.5 1.5 0 0 0-1.5 1.5h1a.5.5 0 0 1 .5-.5v-1Z" fill="#fff"/></g><defs><filter id="a" x=".113" y=".113" width="247.773" height="177.282" filterUnits="userSpaceOnUse" color-interpolation-filters="sRGB"><feFlood flood-opacity="0" result="BackgroundImageFix"/><feColorMatrix in="SourceAlpha" values="0 0 0 0 0 0 0 0 0 0 0 0 0 0 0 0 0 0 127 0" result="hardAlpha"/><feOffset/><feGaussianBlur stdDeviation="2"/><feComposite in2="hardAlpha" operator="out"/><feColorMatrix values="0 0 0 0 1 0 0 0 0 1 0 0 0 0 1 0 0 0 1 0"/><feBlend in2="BackgroundImageFix" result="effect1_dropShadow_1528_2770"/><feBlend in="SourceGraphic" in2="effect1_dropShadow_1528_2770" result="shape"/></filter></defs></svg>